# AST/ASF file generated using VICON BodyLanguage
# -----------------------------------------------
:version 1.10
:name VICON
:units
  mass 1.0
  length 0.45
  angle deg
:documentation
   .ast/.asf automatically generated from VICON data using
   VICON BodyBuilder and BodyLanguage model FoxedUp or BRILLIANT.MOD
:root
   order TX TY TZ RX RY RZ
   axis XYZ
   position 0 0 0  
   orientation 0 0 0 
:bonedata
  begin
     id 1 
     name lhipjoint
     direction 0.700308 -0.549349 0.455834 
     length 2.59063 
     axis 0 0 0  XYZ
  end
  begin
     id 2 
     name lfemur
     direction 0.34202 -0.939693 0  
     length 6.31066  
     axis 0 0 20  XYZ
    dof rx ry rz
    limits (-160.0 20.0)
           (-70.0 70.0)
           (-60.0 70.0)
  end
  begin
     id 3 
     name ltibia
     direction 0.34202 -0.939693 0   
     length 7.36093   
     axis 0 0 20   XYZ
    dof rx
    limits (-10.0 170.0)
  end
  begin
     id 4 
     name lfoot
     direction 0.0905332 -0.248738 0.96433   
     length 2.0233   
     axis -90 7.62852e-016 20   XYZ
    dof rx rz
    limits (-45.0 90.0)
           (-70.0 20.0)
  end
  begin
     id 5 
     name ltoes
     direction 1.53573e-011 -4.21855e-011 1   
     length 1.01524   
     axis -90 7.62852e-016 20   XYZ
    dof rx
    limits (-90.0 20.0)
  end
  begin
     id 6 
     name rhipjoint
     direction -0.61416 -0.607328 0.503944   
     length 2.34332  
     axis 0 0 0  XYZ 
  end
  begin
     id 7 
     name rfemur
     direction -0.34202 -0.939693 0   
     length 6.58548   
     axis 0 0 -20   XYZ
    dof rx ry rz
    limits (-160.0 20.0)
           (-70.0 70.0)
           (-70.0 60.0)
  end
  begin
     id 8 
     name rtibia
     direction -0.34202 -0.939693 0   
     length 7.20707   
     axis 0 0 -20   XYZ
    dof rx
    limits (-10.0 170.0)
 end
 begin
     id 9 
     name rfoot
     direction -0.136772 -0.375778 0.916561   
     length 1.92184  
     axis -90 -7.62852e-016 -20   XYZ
    dof rx rz
    limits (-45.0 90.0)
           (-20.0 70.0)
  end
  begin
     id 10 
     name rtoes
     direction -1.53535e-011 -4.21828e-011 1   
     length 0.951089   
     axis -90 -7.62852e-016 -20   XYZ
    dof rx
    limits (-90.0 20.0)
  end
  begin
     id 11 
     name lowerback
     direction -0.0444974 0.988086 -0.147332   
     length 1.9609   
     axis 0 0 0   XYZ
    dof rx ry rz
    limits (-20.0 45.0)
           (-30.0 30.0)
           (-30.0 30.0)
  end
  begin
     id 12 
     name upperback
     direction 0.00613146 0.999513 0.0306081   
     length 1.94944   
     axis 0 0 0   XYZ
    dof rx ry rz
    limits (-20.0 45.0)
           (-30.0 30.0)
           (-30.0 30.0)
  end
  begin
     id 13 
     name thorax
     direction 0.0254621 0.994518 0.101418   
     length 2.0119   
     axis 0 0 0   XYZ
    dof rx ry rz
    limits (-20.0 45.0)
           (-30.0 30.0)
           (-30.0 30.0)
  end
  begin
     id 14 
     name lowerneck
     direction 0.0168698 0.977854 0.208608   
     length 1.6375   
     axis 0 0 0   XYZ
    dof rx ry rz
    limits (-20.0 45.0)
           (-30.0 30.0)
           (-30.0 30.0)
  end
  begin
     id 15 
     name upperneck
     direction -0.0283988 0.989338 -0.142843   
     length 1.6851   
     axis 0 0 0   XYZ
    dof rx ry rz
    limits (-20.0 45.0)
           (-30.0 30.0)
           (-30.0 30.0)
  end
  begin
     id 16
     name head
     direction -0.0129422 0.99741 -0.0707489  
     length 1.69029  
     axis 0 0 0   XYZ
    dof rx ry rz
    limits (-20.0 45.0)
           (-30.0 30.0)
           (-30.0 30.0)
  end
  begin
     id 17 
     name lclavicle
     direction 0.820295 0.564628 -0.0911715  
     length 3.16484  
     axis 0 0 0   XYZ
    dof ry rz
    limits (-20.0 10.0)
           (0.0 20.0)
  end
  begin
     id 18 
     name lhumerus
     direction 1 -4.48969e-011 1.00186e-027   
     length 5.17853   
     axis 180 -30 -90   XYZ
    dof rx ry rz
    limits (-60.0 90.0)
           (-90.0 90.0)
           (-90.0 90.0)
  end
  begin
     id 19
     name lradius
     direction 1 -4.48966e-011 -1.52922e-027   
     length 3.40399   
     axis 180 -30 -90   XYZ
    dof rx
    limits (-10.0 170.0)
  end
  begin
     id 20
     name lwrist
     direction 1 -4.48981e-011 -3.80893e-027   
     length 1.70199   
     axis 1.1049e-015 90 90   XYZ
    dof ry
    limits (-180.0 0.0)
 end
  begin
     id 21 
     name lhand
     direction 1 -4.48957e-011 -7.61786e-027   
     length 0.708964   
     axis 4.86085e-015 90 90   XYZ
    dof rx rz
    limits (-90.0 90.0)
           (-45.0 45.0)
  end
  begin
     id 22 
     name lfingers
     direction 1 -4.48929e-011 -1.52357e-026   
     length 0.571585   
     axis 9.7217e-015 90 90   XYZ
    dof rx
    limits (0.0 90.0)
  end
  begin
     id 23
     name lthumb
     direction 0.707107 -6.34905e-011 0.707107   
     length 0.820685   
     axis -90 45 2.85299e-015   XYZ
    dof rx rz
    limits (-45.0 45.0)
           (-45.0 45.0)
  end
  begin
     id 24 
     name rclavicle
     direction -0.858602 0.463947 -0.218075   
     length 3.35137  
     axis 0 0 0   XYZ 
    dof ry rz
    limits (-10.0 20.0)
           (-20.0 0.0)
  end
  begin
     id 25 
     name rhumerus
     direction -1 -4.48969e-011 -1.98511e-027  
     length 5.42351   
     axis 180 30 90   XYZ
    dof rx ry rz
    limits (-90.0 60.0)
           (-90.0 90.0)
           (-90.0 90.0)
  end
  begin
     id 26 
     name rradius
     direction -1 -4.48961e-011 -2.82624e-027   
     length 3.42066   
     axis 180 30 90   XYZ
    dof rx
    limits (-10.0 170.0)
  end
  begin
     id 27 
     name rwrist
     direction -1 -4.48966e-011 -3.80893e-027   
     length 1.71033   
     axis 1.1049e-015 -90 -90   XYZ
    dof ry
    limits (-180.0 0.0)
  end
  begin
     id 28
     name rhand
     direction -1 -4.48964e-011 -7.61786e-027   
     length 0.743608   
     axis 4.86085e-015 -90 -90   XYZ
    dof rx rz
    limits (-90.0 90.0)
           (-45.0 45.0)
  end
  begin
     id 29
     name rfingers
     direction -1 -4.48961e-011 -1.52357e-026   
     length 0.599516   
     axis 9.7217e-015 -90 -90   XYZ
    dof rx
    limits (0.0 90.0)
  end
  begin
     id 30
     name rthumb
     direction -0.707107 -6.34913e-011 0.707107   
     length 0.860789   
     axis -90 -45 -2.85299e-015   XYZ
    dof rx rz
    limits (-45.0 45.0)
           (-45.0 45.0)
  end
:hierarchy
  begin
    root lhipjoint rhipjoint lowerback
    lhipjoint lfemur
    lfemur ltibia
    ltibia lfoot
    lfoot ltoes
    rhipjoint rfemur
    rfemur rtibia
    rtibia rfoot
    rfoot rtoes
    lowerback upperback
    upperback thorax
    thorax lowerneck lclavicle rclavicle
    lowerneck upperneck
    upperneck head
    lclavicle lhumerus
    lhumerus lradius
    lradius lwrist
    lwrist lhand lthumb
    lhand lfingers
    rclavicle rhumerus
    rhumerus rradius
    rradius rwrist
    rwrist rhand rthumb
    rhand rfingers
  end

#!OML:ASF E:\mmandel\Project 1\Capture day 1\Session 2\Subject.ASF
:FULLY-SPECIFIED
:DEGREES
1
root -4.76474 1.50462 -1.34618 31.8289 80.0978 134.733
lowerback 21.2885 2.19477 -5.32146
upperback 2.3429 2.09312 2.63199
thorax -9.64122 1.34492 5.33697
lowerneck -22.3614 -0.105561 2.8562
upperneck 14.5059 -1.03952 0.0253858
head 8.13785 -0.31901 -0.588902
rclavicle 2.38542e-014 -6.54809e-014
rhumerus -23.7314 33.2572 -31.8571
rradius 18.0995
rwrist 24.3246
rhand 5.57241 26.9187
rfingers 7.12502
rthumb 30.9158 -0.498763
lclavicle 2.38542e-014 -6.54809e-014
lhumerus -34.316 -31.4567 30.9961
lradius 20.162
lwrist -4.86002
lhand -10.0953 -19.72
lfingers 7.12502
lthumb 15.8918 9.64794
rfemur -2.35043 -42.4359 -13.0006
rtibia 53.2075
rfoot -1.09461 -16.9534
rtoes -9.01834
lfemur -16.3729 16.4837 -11.4421
ltibia 72.8251
lfoot 10.2773 2.64089
ltoes 8.02651
2
root -4.76981 1.50596 -1.34654 31.4119 80.1405 134.272
lowerback 21.2172 2.17756 -5.22872
upperback 2.35229 2.09884 2.66515
thorax -9.59093 1.34312 5.31911
lowerneck -22.436 -0.108803 2.80418
upperneck 14.5466 -1.04068 0.0764979
head 8.16468 -0.316334 -0.563817
rclavicle -6.99722e-014 1.02865e-013
rhumerus -23.7132 33.7068 -31.905
rradius 18.1169
rwrist 23.8461
rhand 5.71104 26.8379
rfingers 7.12502
rthumb 31.0479 -0.554395
lclavicle -6.99722e-014 1.02865e-013
lhumerus -34.3666 -31.5533 31.0849
lradius 20.1776
lwrist -4.69421
lhand -10.0573 -19.7102
lfingers 7.12502
lthumb 15.9285 9.65476
rfemur -2.37071 -42.4361 -12.8488
rtibia 53.1426
rfoot -1.08917 -16.9766
rtoes -9.28494
lfemur -16.3936 16.5085 -11.3544
ltibia 72.8034
lfoot 10.3075 2.65898
ltoes 8.5221
3
root -4.77387 1.50709 -1.3467 31.0416 80.1969 133.843
lowerback 21.123 2.16768 -5.1183
upperback 2.35852 2.11737 2.68211
thorax -9.53217 1.34612 5.26922
lowerneck -22.5402 -0.112348 2.82411
upperneck 14.6077 -1.05915 0.0923975
head 8.20261 -0.321025 -0.564656
rclavicle 9.06458e-014 -1.0143e-013
rhumerus -23.7472 33.6995 -31.953
rradius 18.0441
rwrist 23.5828
rhand 5.72979 27.0947
rfingers 7.12502
rthumb 31.0658 -0.294243
lclavicle 9.06458e-014 -1.0143e-013
lhumerus -34.3263 -31.6175 31.0901
lradius 20.1967
lwrist -4.66246
lhand -9.9177 -19.5913
lfingers 7.12502
lthumb 16.0629 9.76292
rfemur -2.40489 -42.4583 -12.6933
rtibia 53.0967
rfoot -1.08846 -16.9862
rtoes -9.56824
lfemur -16.4461 16.5209 -11.2674
ltibia 72.8067
lfoot 10.3382 2.54504
ltoes 8.35518
4
root -4.77459 1.50763 -1.34632 30.9162 80.2557 133.725
lowerback 21.0937 2.16385 -5.01068
upperback 2.39826 2.13831 2.65962
thorax -9.46985 1.3495 5.17552
lowerneck -22.7329 -0.184788 2.72955
upperneck 14.6667 -1.16883 0.268164
head 8.25527 -0.357309 -0.5053
rclavicle 1.59028e-015 5.15411e-014
rhumerus -23.8646 33.5213 -32.0522
rradius 17.9975
rwrist 23.5321
rhand 5.61932 27.272
rfingers 7.12502
rthumb 30.9605 -0.136986
lclavicle 1.59028e-015 5.15411e-014
lhumerus -34.1312 -31.5238 30.9439
lradius 20.2109
lwrist -4.7697
lhand -9.98908 -19.5504
lfingers 7.12502
lthumb 15.9942 9.80936
rfemur -2.33701 -42.4434 -12.6653
rtibia 53.0581
rfoot -1.15794 -17.0276
rtoes -9.0659
lfemur -16.4474 16.4874 -11.2129
ltibia 72.8197
lfoot 10.3695 2.46661
ltoes 8.49338
5
root -4.77488 1.50807 -1.34803 30.5432 80.2886 133.352
lowerback 21.0993 2.13546 -4.97196
upperback 2.39419 2.11102 2.67896
thorax -9.47333 1.33543 5.1828
lowerneck -22.7873 -0.219688 2.62946
upperneck 14.7335 -1.21989 0.435341
head 8.28847 -0.367517 -0.439752
rclavicle -3.81667e-014 -1.58407e-015
rhumerus -23.8666 34.012 -32.1684
rradius 18.0546
rwrist 23.1295
rhand 5.60521 27.3507
rfingers 7.12502
rthumb 30.9471 -0.060887
lclavicle -3.81667e-014 -1.58407e-015
lhumerus -34.2445 -31.5808 30.9911
lradius 20.2411
lwrist -4.65127
lhand -10.324 -19.6626
lfingers 7.12502
lthumb 15.6716 9.72273
rfemur -2.33356 -42.43 -12.5796
rtibia 53.0349
rfoot -1.06288 -17.0558
rtoes -9.31924
lfemur -16.4417 16.5556 -11.1088
ltibia 72.8465
lfoot 10.3445 2.45081
ltoes 8.81801
6
root -4.77167 1.50925 -1.34975 30.1081 80.3011 132.989
lowerback 21.1608 2.12266 -4.91178
upperback 2.40428 2.10762 2.69086
thorax -9.49345 1.33248 5.16167
lowerneck -22.8082 -0.223396 2.61023
upperneck 14.794 -1.23594 0.514004
head 8.31327 -0.366464 -0.412396
rclavicle 5.56597e-015 2.45188e-014
rhumerus -23.7093 33.7183 -32.0152
rradius 18.0334
rwrist 23.6636
rhand 5.79584 27.5317
rfingers 7.12502
rthumb 31.1288 0.154826
lclavicle 5.56597e-015 2.45188e-014
lhumerus -34.3795 -31.8646 31.1435
lradius 20.2504
lwrist -4.35408
lhand -10.6064 -19.6955
lfingers 7.12502
lthumb 15.3997 9.71091
rfemur -2.22752 -42.3682 -12.596
rtibia 53.0274
rfoot -1.11183 -17.0249
rtoes -8.85426
lfemur -16.3485 16.6903 -10.9603
ltibia 72.8808
lfoot 10.2865 2.38583
ltoes 8.58139
7
root -4.77144 1.51114 -1.35098 29.6768 80.316 132.544
lowerback 21.0973 2.1206 -4.79489
upperback 2.43807 2.1371 2.70059
thorax -9.42141 1.34018 5.09641
lowerneck -22.9222 -0.265474 2.51681
upperneck 14.8272 -1.29039 0.63096
head 8.34469 -0.383599 -0.365405
rclavicle 1.19271e-014 1.36913e-014
rhumerus -23.6066 33.1086 -31.8464
rradius 17.9673
rwrist 24.374
rhand 5.92601 27.6694
rfingers 7.12502
rthumb 31.2528 0.316411
lclavicle 1.19271e-014 1.36913e-014
lhumerus -34.4047 -32.1439 31.2909
lradius 20.2527
lwrist -4.00616
lhand -10.698 -19.6246
lfingers 7.12502
lthumb 15.3114 9.78861
rfemur -2.24632 -42.3776 -12.5134
rtibia 53.0265
rfoot -1.06491 -17.0149
rtoes -8.9113
lfemur -16.3432 16.7829 -10.8477
ltibia 72.91
lfoot 10.1507 2.26571
ltoes 8.25567
8
root -4.76946 1.51141 -1.35136 29.4192 80.3628 132.305
lowerback 21.1073 2.11608 -4.67388
upperback 2.45516 2.16049 2.70457
thorax -9.40667 1.34661 5.02361
lowerneck -23.0092 -0.289025 2.46614
upperneck 14.8441 -1.31633 0.66739
head 8.36535 -0.394145 -0.34868
rclavicle 4.85035e-014 -1.31446e-014
rhumerus -23.6975 32.3506 -31.8135
rradius 17.8594
rwrist 24.9122
rhand 5.66556 27.6857
rfingers 7.12502
rthumb 31.0046 0.285057
lclavicle 4.85035e-014 -1.31446e-014
lhumerus -34.3945 -32.3374 31.375
lradius 20.292
lwrist -3.83087
lhand -10.7512 -19.5675
lfingers 7.12502
lthumb 15.2601 9.84956
rfemur -2.18803 -42.3532 -12.483
rtibia 53.019
rfoot -1.19162 -17.026
rtoes -8.42845
lfemur -16.3324 16.8189 -10.7563
ltibia 72.9397
lfoot 10.0578 2.13754
ltoes 8.21228
9
root -4.77 1.51238 -1.35271 28.8646 80.4229 131.745
lowerback 21.0807 2.11618 -4.46854
upperback 2.47713 2.21135 2.71078
thorax -9.36701 1.36244 4.89669
lowerneck -23.0962 -0.33183 2.41563
upperneck 14.8423 -1.36791 0.704056
head 8.37942 -0.416884 -0.335308
rclavicle 1.44715e-013 -1.38795e-013
rhumerus -23.7144 31.4596 -31.666
rradius 17.7758
rwrist 25.5077
rhand 5.38617 27.5134
rfingers 7.12502
rthumb 30.7382 0.0623982
lclavicle 1.44715e-013 -1.38795e-013
lhumerus -34.2195 -32.2373 31.2709
lradius 20.3298
lwrist -4.01954
lhand -10.7203 -19.511
lfingers 7.12502
lthumb 15.2899 9.90386
rfemur -2.16886 -42.3477 -12.3668
rtibia 53.0017
rfoot -1.15165 -17.0424
rtoes -8.61171
lfemur -16.3293 16.8543 -10.6212
ltibia 72.9617
lfoot 10.1848 2.08995
ltoes 8.20404
10
root -4.77208 1.51402 -1.3531 28.3733 80.4588 131.326
lowerback 21.1327 2.08971 -4.48454
upperback 2.47861 2.17641 2.76588
thorax -9.39223 1.34834 4.97724
lowerneck -23.0595 -0.34703 2.3466
upperneck 14.9433 -1.39087 0.823265
head 8.40926 -0.417095 -0.286992
rclavicle -3.26007e-014 4.55962e-015
rhumerus -23.7031 32.7206 -31.8227
rradius 17.9312
rwrist 24.324
rhand 5.36725 27.2548
rfingers 7.12502
rthumb 30.7202 -0.199632
lclavicle -3.26007e-014 4.55962e-015
lhumerus -34.3346 -32.0372 31.2368
lradius 20.3046
lwrist -4.18992
lhand -10.6572 -19.6227
lfingers 7.12502
lthumb 15.3507 9.78752
rfemur -2.03575 -42.3115 -12.369
rtibia 52.9661
rfoot -1.12175 -17.0414
rtoes -8.44057
lfemur -16.2286 16.7727 -10.5352
ltibia 72.9599
lfoot 10.2748 2.16151
ltoes 7.98028
11
root -4.77561 1.51518 -1.35364 27.8943 80.4944 130.84
lowerback 21.1044 2.05883 -4.49067
upperback 2.47729 2.14064 2.82602
thorax -9.37666 1.33232 5.05877
lowerneck -23.0704 -0.355402 2.26271
upperneck 15.0291 -1.40314 0.952786
head 8.44222 -0.412008 -0.231355
rclavicle -4.37326e-014 -1.22253e-014
rhumerus -23.6042 33.1908 -31.8327
rradius 17.9949
rwrist 24.0709
rhand 5.44268 27.1862
rfingers 7.12502
rthumb 30.7921 -0.254638
lclavicle -4.37326e-014 -1.22253e-014
lhumerus -34.5119 -32.0636 31.3406
lradius 20.2619
lwrist -4.07451
lhand -10.6583 -19.6683
lfingers 7.12502
lthumb 15.3496 9.74196
rfemur -2.01118 -42.3319 -12.2835
rtibia 52.9264
rfoot -1.0128 -17.0079
rtoes -8.6684
lfemur -16.2196 16.6906 -10.4734
ltibia 72.9541
lfoot 10.2304 2.24315
ltoes 7.55309
12
root -4.77934 1.51588 -1.35337 27.5239 80.5206 130.401
lowerback 21.0057 2.06176 -4.37006
upperback 2.49891 2.17717 2.83276
thorax -9.29963 1.34328 4.98633
lowerneck -23.2052 -0.414835 2.17902
upperneck 15.0529 -1.47961 1.04596
head 8.47393 -0.441294 -0.196988
rclavicle -3.4191e-014 7.10096e-014
rhumerus -23.4439 31.6198 -31.4908
rradius 17.8637
rwrist 25.6925
rhand 5.47634 27.3325
rfingers 7.12502
rthumb 30.8242 -0.10237
lclavicle -3.4191e-014 7.10096e-014
lhumerus -34.4506 -32.2073 31.3905
lradius 20.2916
lwrist -3.90082
lhand -10.7987 -19.5726
lfingers 7.12502
lthumb 15.2144 9.84803
rfemur -2.09093 -42.3101 -12.1087
rtibia 52.8874
rfoot -0.993543 -17.0269
rtoes -8.7619
lfemur -16.2694 16.7202 -10.402
ltibia 72.941
lfoot 10.2202 2.20931
ltoes 7.57027
13
root -4.78289 1.51678 -1.3531 27.2426 80.5406 130.073
lowerback 20.9312 2.0579 -4.31238
upperback 2.50281 2.18891 2.8459
thorax -9.2548 1.34576 4.96474
lowerneck -23.2541 -0.446759 2.15148
upperneck 15.0813 -1.52519 1.09234
head 8.4923 -0.458315 -0.183182
rclavicle -2.8625e-014 8.30174e-014
rhumerus -23.5271 32.0199 -31.5775
rradius 17.9439
rwrist 25.2716
rhand 5.55736 27.3381
rfingers 7.12502
rthumb 30.9014 -0.0820855
lclavicle -2.8625e-014 8.30174e-014
lhumerus -34.3842 -32.0703 31.3145
lradius 20.2918
lwrist -4.04154
lhand -10.9106 -19.7415
lfingers 7.12502
lthumb 15.1066 9.68722
rfemur -2.13769 -42.2804 -11.9782
rtibia 52.8543
rfoot -1.04799 -17.0825
rtoes -8.68384
lfemur -16.2918 16.7884 -10.3263
ltibia 72.9266
lfoot 10.0964 2.16157
ltoes 8.22195
14
root -4.78438 1.51741 -1.35378 26.8979 80.5748 129.714
lowerback 20.9305 2.02074 -4.31982
upperback 2.46252 2.13976 2.88386
thorax -9.29518 1.32427 5.02597
lowerneck -23.1448 -0.35701 2.26784
upperneck 15.125 -1.4186 0.989736
head 8.4878 -0.412963 -0.222155
rclavicle -6.36111e-015 4.58447e-014
rhumerus -23.6308 33.3 -31.8371
rradius 18.1008
rwrist 24.1042
rhand 5.70658 27.1846
rfingers 7.12502
rthumb 31.0437 -0.20852
lclavicle -6.36111e-015 4.58447e-014
lhumerus -34.522 -31.9117 31.2852
lradius 20.2906
lwrist -4.23219
lhand -10.9086 -19.8507
lfingers 7.12502
lthumb 15.1085 9.57784
rfemur -2.11699 -42.3082 -11.9207
rtibia 52.8348
rfoot -1.07299 -17.0865
rtoes -8.56275
lfemur -16.295 16.8036 -10.2467
ltibia 72.9295
lfoot 9.9572 2.17316
ltoes 8.75586
